<?xml version="1.0" encoding="UTF-8" standalone="no"?>
<!-- Created with Inkscape (http://www.inkscape.org/) -->

<svg
   version="1.1"
   id="svg1"
   width="1836.7043"
   height="500"
   viewBox="0 0 1836.7043 500"
   sodipodi:docname="lari.svg"
   inkscape:version="1.4 (e7c3feb100, 2024-10-09)"
   xmlns:inkscape="http://www.inkscape.org/namespaces/inkscape"
   xmlns:sodipodi="http://sodipodi.sourceforge.net/DTD/sodipodi-0.dtd"
   xmlns="http://www.w3.org/2000/svg"
   xmlns:svg="http://www.w3.org/2000/svg">
  <defs
     id="defs1">
    <inkscape:path-effect
       effect="fillet_chamfer"
       id="path-effect3"
       is_visible="true"
       lpeversion="1"
       nodesatellites_param="F,0,0,1,0,10.21972,0,1 @ F,0,0,1,0,8.981472,0,1 @ F,0,0,1,0,8.7197198,0,1 @ F,0,0,1,0,8.731472,0,1 | F,0,0,1,0,0,0,1 @ F,0,0,1,0,0,0,1 @ F,0,0,1,0,0,0,1 @ F,0,0,1,0,0,0,1 @ F,0,0,1,0,0,0,1 @ F,0,0,1,0,0,0,1 @ F,0,0,1,0,0,0,1 @ F,0,0,1,0,0,0,1 @ F,0,0,1,0,0,0,1 @ F,0,0,1,0,0,0,1 @ F,0,0,1,0,0,0,1 @ F,0,0,1,0,9.1227334,0,1 @ F,0,0,1,0,15.354331,0,1 @ F,0,0,1,0,0,0,1 @ F,0,0,1,0,0,0,1 @ F,0,0,1,0,0,0,1 @ F,0,0,1,0,0,0,1 @ F,0,0,1,0,0,0,1 @ F,0,0,1,0,0,0,1 @ F,0,0,1,0,0,0,1 @ F,0,0,1,0,0,0,1 @ F,0,0,1,0,0,0,1 @ F,0,0,1,0,0,0,1 | F,0,0,1,0,0,0,1 @ F,0,0,1,0,0,0,1 @ F,0,0,1,0,0,0,1 @ F,0,0,1,0,0,0,1 @ F,0,0,1,0,0,0,1 @ F,0,0,1,0,0,0,1 @ F,0,0,1,0,0,0,1 @ F,0,0,1,0,0,0,1 @ F,0,0,1,0,0,0,1 @ F,0,0,1,0,0,0,1 @ F,0,0,1,0,0,0,1 @ F,0,0,1,0,0,0,1 @ F,0,0,1,0,0,0,1 | F,0,0,1,0,0,0,1 @ F,0,0,1,0,0,0,1 @ F,0,0,1,0,0,0,1 @ F,0,0,1,0,0,0,1 @ F,0,0,1,0,0,0,1 @ F,0,0,1,0,0,0,1 @ F,0,0,1,0,0,0,1 @ F,0,0,1,0,13.684904,0,1 @ F,0,0,1,0,7.7082517,0,1 @ F,0,0,1,0,0,0,1 @ F,0,0,1,0,0,0,1 @ F,0,0,1,0,0,0,1 @ F,0,0,1,0,0,0,1 @ F,0,0,1,0,0,0,1 @ F,0,0,1,0,0,0,1 | F,0,0,1,0,9.9520771,0,1 @ F,0,0,1,0,8.9007207,0,1 @ F,0,0,1,0,9.2619664,0,1 @ F,0,0,1,0,9.2588886,0,1 | F,0,0,1,0,8.5850722,0,1 @ F,0,0,1,0,9.2558033,0,1 @ F,0,0,1,0,8.2330749,0,1 @ F,0,0,1,0,9.9613405,0,1"
       radius="0"
       unit="px"
       method="auto"
       mode="F"
       chamfer_steps="1"
       flexible="false"
       use_knot_distance="true"
       apply_no_radius="true"
       apply_with_radius="true"
       only_selected="false"
       hide_knots="false" />
    <inkscape:path-effect
       effect="fillet_chamfer"
       id="path-effect2"
       is_visible="true"
       lpeversion="1"
       nodesatellites_param="F,0,0,1,0,0,0,1 @ F,0,0,1,0,20.5,0,1 @ F,0,0,1,0,0,0,1 @ F,0,0,1,0,0,0,1 | F,0,0,1,0,25.5,0,1 @ F,0,0,1,0,0,0,1 @ F,0,0,1,0,0,0,1 @ F,0,0,1,0,0,0,1 | F,0,0,1,0,7,0,1 @ F,0,0,1,0,7,0,1 @ F,0,0,1,0,7,0,1 @ F,0,0,1,0,7,0,1 | F,0,0,1,0,23.530669,0,1 @ F,0,0,1,0,7,0,1 @ F,0,0,1,0,0,0,1 @ F,0,0,1,0,0,0,1"
       radius="7"
       unit="px"
       method="auto"
       mode="F"
       chamfer_steps="1"
       flexible="false"
       use_knot_distance="true"
       apply_no_radius="true"
       apply_with_radius="true"
       only_selected="false"
       hide_knots="false" />
    <inkscape:path-effect
       effect="fillet_chamfer"
       id="path-effect1"
       is_visible="true"
       lpeversion="1"
       nodesatellites_param="F,0,0,1,0,0,0,1 @ F,0,0,1,0,0,0,1 @ F,0,0,1,0,0,0,1 @ F,0,0,1,0,0,0,1 @ F,0,0,1,0,0,0,1 @ F,0,0,1,0,0,0,1 @ F,0,0,1,0,0,0,1 | F,0,0,1,0,0,0,1 @ F,0,0,1,0,0,0,1 @ F,0,0,1,0,0,0,1 @ F,0,0,1,0,0,0,1 @ F,0,0,1,0,0,0,1 @ F,0,0,1,0,0,0,1 @ F,0,0,1,0,0,0,1 @ F,0,0,1,0,0,0,1 | F,0,0,1,0,0,0,1 @ F,0,0,1,0,0,0,1 @ F,0,0,1,0,0,0,1 @ F,0,0,1,0,0,0,1 @ F,0,0,1,0,0,0,1 @ F,0,0,1,0,0,0,1 @ F,0,0,1,0,0,0,1 @ F,0,0,1,0,0,0,1 @ F,0,0,1,0,0,0,1 | F,0,0,1,0,0,0,1 @ F,0,0,1,0,0,0,1 @ F,0,0,1,0,0,0,1 @ F,0,0,1,0,0,0,1 @ F,0,0,1,0,0,0,1 @ F,0,0,1,0,0,0,1 @ F,0,0,1,0,0,0,1 @ F,0,0,1,0,0,0,1"
       radius="1"
       unit="px"
       method="auto"
       mode="F"
       chamfer_steps="1"
       flexible="false"
       use_knot_distance="true"
       apply_no_radius="true"
       apply_with_radius="true"
       only_selected="false"
       hide_knots="false" />
  </defs>
  <sodipodi:namedview
     id="namedview1"
     pagecolor="#ffffff"
     bordercolor="#000000"
     borderopacity="0.25"
     inkscape:showpageshadow="2"
     inkscape:pageopacity="0.0"
     inkscape:pagecheckerboard="0"
     inkscape:deskcolor="#d1d1d1"
     inkscape:zoom="0.70710678"
     inkscape:cx="1369.6658"
     inkscape:cy="222.73864"
     inkscape:window-width="2560"
     inkscape:window-height="1371"
     inkscape:window-x="0"
     inkscape:window-y="32"
     inkscape:window-maximized="1"
     inkscape:current-layer="g4" />
  <g
     inkscape:groupmode="layer"
     inkscape:label="Image"
     id="g1"
     transform="translate(23.957899,6.0829196)">
    <g
       id="g4"
       transform="matrix(1.6438379,0,0,1.6438379,15.425003,3.9164142)">
      <g
         id="g3"
         transform="matrix(1.3715419,0,0,1.3715419,-65.159621,-54.245122)">
        <path
           style="fill:#22232f;fill-opacity:1"
           d="m 30.04044,39.550455 40.245247,37.01759 c 9.616038,8.84484 15.088087,21.31284 15.088087,34.378035 V 252.44954 H 30.04044 Z"
           id="path1"
           sodipodi:nodetypes="cccccc" />
        <path
           d="m 113.48321,200.82202 65.63089,-45.04009 c 2.44589,-1.67853 5.77162,0.0727 5.77162,3.03915 v 86.62846 c 0,3.86599 -3.13401,7 -7,7 h -63.17413 c -3.86599,0 -7,-3.13401 -7,-7 v -33.66667 c 0,-4.38151 2.15899,-8.48164 5.77162,-10.96085 z"
           style="fill:#4c519e;fill-opacity:1"
           id="path1-8" />
        <path
           d="m 226.01815,108.96746 22.19762,16.72175 c 3.52066,2.65215 5.5911,6.80401 5.5911,11.21183 v 115.5485 H 207.22354 V 118.3399 c 0,-9.68098 11.06214,-15.19742 18.79461,-9.37244 z"
           style="fill:#4a4782;fill-opacity:1"
           id="path1-9" />
        <path
           d="m 295.13597,73.099125 36.34206,-32.56423 V 252.44954 H 276.14469 V 115.61622 c 0,-16.227375 6.90584,-31.687975 18.99128,-42.517095 z"
           style="fill:#22232f;fill-opacity:1"
           id="path1-6" />
      </g>
      <path
         d="M 514.64188,292 V -6.0829196 h 55.15548 V 292 Z m 176.82178,6.08332 q -23.52219,0 -39.94717,-8.9222 -16.2222,-9.12499 -24.73885,-24.13053 -8.31388,-15.20831 -8.31388,-33.45828 0,-15.20832 4.66388,-27.78052 4.66389,-12.57221 15.00554,-22.10275 10.54443,-9.73332 28.18607,-16.2222 12.16665,-4.4611 28.99718,-7.90832 16.83053,-3.44722 38.12217,-6.48888 21.29164,-3.24444 46.8416,-7.09721 l -19.87219,10.94998 q 0,-19.46664 -9.32777,-28.59162 -9.32776,-9.12499 -31.22773,-9.12499 -12.16665,0 -25.34719,5.88055 -13.18053,5.88054 -18.45275,20.88608 l -49.88326,-15.81665 q 8.31387,-27.17218 31.22773,-44.205491 22.91386,-17.03331 62.45547,-17.03331 28.99718,0 51.50548,8.92221 22.50831,8.92221 34.06662,30.822181 6.48888,12.16665 7.70555,24.3333 1.21666,12.16665 1.21666,27.17218 V 292 h -48.26104 v -45.0166 l 6.89443,9.32776 q -16.01942,22.10275 -34.67495,32.03885 -18.45275,9.73331 -46.8416,9.73331 z m 11.7611,-43.39438 q 15.20831,0 25.54996,-5.27221 10.54443,-5.475 16.62775,-12.36943 6.28611,-6.89444 8.51666,-11.55832 4.25833,-8.92221 4.86666,-20.6833 0.81111,-11.96388 0.81111,-19.8722 l 16.2222,4.05555 q -24.53608,4.05555 -39.74439,6.89444 -15.20831,2.6361 -24.53608,4.86666 -9.32776,2.23055 -16.42497,4.86666 -8.1111,3.24444 -13.18054,7.09721 -4.86666,3.64999 -7.29999,8.1111 -2.23055,4.4611 -2.23055,9.9361 0,7.50276 3.64999,12.97776 3.85277,5.27221 10.74721,8.1111 6.89443,2.83888 16.42498,2.83888 z M 867.06906,292 V 73.000304 h 48.66659 v 53.533256 l -5.27221,-6.89443 q 4.25833,-11.35554 11.35554,-20.683307 7.09721,-9.327764 17.43886,-15.411089 7.90833,-4.86666 17.23609,-7.502768 9.32777,-2.838885 19.26386,-3.447217 9.9361,-0.81111 19.8722,0.405555 v 51.505486 q -9.12499,-2.83889 -21.29164,-1.825 -11.96387,0.81111 -21.69719,5.47499 -9.73332,4.46111 -16.42498,11.96388 -6.69166,7.29999 -10.13887,17.43886 -3.44722,9.9361 -3.44722,22.5083 V 292 Z M 1038.2135,42.58368 V -6.0829196 h 55.1555 V 42.58368 Z m 0,249.41632 V 73.000304 h 55.1555 V 292 Z"
         id="text3"
         style="font-weight:800;font-size:405.555px;line-height:0;font-family:Manrope;-inkscape-font-specification:'Manrope Ultra-Bold';word-spacing:0px;fill:#22232f;stroke-width:19.1601"
         aria-label="lari" />
    </g>
  </g>
</svg>
