<svg
   version="1.1"
   id="svg1"
   width="707.93536"
   height="500"
   viewBox="0 0 707.93535 500"
   xmlns:svg="http://www.w3.org/2000/svg">

  <defs
     id="defs1" />
  <g
     id="g1"
     transform="translate(23.957901,-3.9163874)">
    <g
       id="g4"
       transform="matrix(1.6438379,0,0,1.6438379,15.425003,3.9164142)">
      <g
         id="g3"
         transform="matrix(1.4286874,0,0,1.4286874,-66.876298,-56.505253)">
        <path
           style="fill:#22232f;fill-opacity:1"
           d="m 30.04044,39.550455 40.245247,37.01759 c 9.616038,8.84484 15.088087,21.31284 15.088087,34.378035 V 252.44954 H 30.04044 Z"
           id="path1" />
        <path
           d="m 113.48321,200.82202 65.63089,-45.04009 c 2.44589,-1.67853 5.77162,0.0727 5.77162,3.03915 v 86.62846 c 0,3.86599 -3.13401,7 -7,7 h -63.17413 c -3.86599,0 -7,-3.13401 -7,-7 v -33.66667 c 0,-4.38151 2.15899,-8.48164 5.77162,-10.96085 z"
           style="fill:#4c519e;fill-opacity:1"
           id="path1-8" />
        <path
           d="m 226.01815,108.96746 22.19762,16.72175 c 3.52066,2.65215 5.5911,6.80401 5.5911,11.21183 v 115.5485 H 207.22354 V 118.3399 c 0,-9.68098 11.06214,-15.19742 18.79461,-9.37244 z"
           style="fill:#4a4782;fill-opacity:1"
           id="path1-9" />
        <path
           d="m 295.13597,73.099125 36.34206,-32.56423 V 252.44954 H 276.14469 V 115.61622 c 0,-16.227375 6.90584,-31.687975 18.99128,-42.517095 z"
           style="fill:#22232f;fill-opacity:1"
           id="path1-6" />
      </g>
    </g>
  </g>
</svg>
